<mxfile host="app.diagrams.net" agent="Mozilla/5.0 (Windows NT 10.0; Win64; x64) AppleWebKit/537.36 (KHTML, like Gecko) Chrome/129.0.0.0 Safari/537.36" version="24.7.16" pages="2">
  <diagram name="第 1 页" id="jrY3hqL4IvJd9GPTE15i">
    <mxGraphModel dx="1434" dy="746" grid="1" gridSize="10" guides="1" tooltips="1" connect="1" arrows="1" fold="1" page="1" pageScale="1" pageWidth="827" pageHeight="1169" math="0" shadow="0">
      <root>
        <mxCell id="0" />
        <mxCell id="1" parent="0" />
        <mxCell id="OZeR9HdqItaZqGGBJY8X-23" style="edgeStyle=orthogonalEdgeStyle;rounded=0;orthogonalLoop=1;jettySize=auto;html=1;exitX=0.5;exitY=1;exitDx=0;exitDy=0;entryX=0;entryY=0.5;entryDx=0;entryDy=0;" parent="1" source="OZeR9HdqItaZqGGBJY8X-19" target="OZeR9HdqItaZqGGBJY8X-4" edge="1">
          <mxGeometry relative="1" as="geometry" />
        </mxCell>
        <mxCell id="OZeR9HdqItaZqGGBJY8X-19" value="&lt;br&gt;&lt;br&gt;&lt;br&gt;&lt;br&gt;&lt;br&gt;推送会议卡片" style="rounded=0;whiteSpace=wrap;html=1;" parent="1" vertex="1">
          <mxGeometry x="370" y="360" width="120" height="100" as="geometry" />
        </mxCell>
        <mxCell id="OZeR9HdqItaZqGGBJY8X-18" value="&lt;br&gt;&lt;br&gt;&lt;br&gt;。。。。" style="rounded=0;whiteSpace=wrap;html=1;" parent="1" vertex="1">
          <mxGeometry x="150" y="360" width="120" height="100" as="geometry" />
        </mxCell>
        <mxCell id="OZeR9HdqItaZqGGBJY8X-5" style="edgeStyle=orthogonalEdgeStyle;rounded=0;orthogonalLoop=1;jettySize=auto;html=1;entryX=0;entryY=0.5;entryDx=0;entryDy=0;" parent="1" source="OZeR9HdqItaZqGGBJY8X-1" target="OZeR9HdqItaZqGGBJY8X-2" edge="1">
          <mxGeometry relative="1" as="geometry" />
        </mxCell>
        <mxCell id="OZeR9HdqItaZqGGBJY8X-1" value="Actor" style="shape=umlActor;verticalLabelPosition=bottom;verticalAlign=top;html=1;outlineConnect=0;" parent="1" vertex="1">
          <mxGeometry x="110" y="80" width="30" height="60" as="geometry" />
        </mxCell>
        <mxCell id="OZeR9HdqItaZqGGBJY8X-13" style="edgeStyle=orthogonalEdgeStyle;rounded=0;orthogonalLoop=1;jettySize=auto;html=1;exitX=0.5;exitY=1;exitDx=0;exitDy=0;entryX=0.5;entryY=0;entryDx=0;entryDy=0;" parent="1" source="OZeR9HdqItaZqGGBJY8X-2" target="OZeR9HdqItaZqGGBJY8X-9" edge="1">
          <mxGeometry relative="1" as="geometry">
            <Array as="points">
              <mxPoint x="450" y="160" />
              <mxPoint x="320" y="160" />
            </Array>
          </mxGeometry>
        </mxCell>
        <mxCell id="OZeR9HdqItaZqGGBJY8X-14" style="edgeStyle=orthogonalEdgeStyle;rounded=0;orthogonalLoop=1;jettySize=auto;html=1;exitX=0.5;exitY=1;exitDx=0;exitDy=0;entryX=0.5;entryY=0;entryDx=0;entryDy=0;" parent="1" source="OZeR9HdqItaZqGGBJY8X-2" target="OZeR9HdqItaZqGGBJY8X-10" edge="1">
          <mxGeometry relative="1" as="geometry">
            <Array as="points">
              <mxPoint x="450" y="160" />
              <mxPoint x="580" y="160" />
            </Array>
          </mxGeometry>
        </mxCell>
        <mxCell id="OZeR9HdqItaZqGGBJY8X-2" value="米小助回调接口&lt;br&gt;消息回调/卡片回调" style="rounded=1;whiteSpace=wrap;html=1;" parent="1" vertex="1">
          <mxGeometry x="390" y="80" width="120" height="60" as="geometry" />
        </mxCell>
        <mxCell id="OZeR9HdqItaZqGGBJY8X-3" value="会议业务" style="rounded=1;whiteSpace=wrap;html=1;" parent="1" vertex="1">
          <mxGeometry x="370" y="360" width="120" height="60" as="geometry" />
        </mxCell>
        <mxCell id="OZeR9HdqItaZqGGBJY8X-25" style="edgeStyle=orthogonalEdgeStyle;rounded=0;orthogonalLoop=1;jettySize=auto;html=1;exitX=0.5;exitY=1;exitDx=0;exitDy=0;" parent="1" source="OZeR9HdqItaZqGGBJY8X-4" target="OZeR9HdqItaZqGGBJY8X-1" edge="1">
          <mxGeometry relative="1" as="geometry" />
        </mxCell>
        <mxCell id="OZeR9HdqItaZqGGBJY8X-4" value="UMS" style="rounded=1;whiteSpace=wrap;html=1;" parent="1" vertex="1">
          <mxGeometry x="620" y="500" width="120" height="60" as="geometry" />
        </mxCell>
        <mxCell id="OZeR9HdqItaZqGGBJY8X-6" value="帮我定个明天上午的会议室&lt;div&gt;&lt;br/&gt;&lt;/div&gt;" style="text;html=1;align=center;verticalAlign=middle;resizable=0;points=[];autosize=1;strokeColor=none;fillColor=none;" parent="1" vertex="1">
          <mxGeometry x="180" y="90" width="170" height="40" as="geometry" />
        </mxCell>
        <mxCell id="OZeR9HdqItaZqGGBJY8X-16" style="edgeStyle=orthogonalEdgeStyle;rounded=0;orthogonalLoop=1;jettySize=auto;html=1;exitX=0.5;exitY=1;exitDx=0;exitDy=0;entryX=0.5;entryY=0;entryDx=0;entryDy=0;" parent="1" source="OZeR9HdqItaZqGGBJY8X-9" target="OZeR9HdqItaZqGGBJY8X-15" edge="1">
          <mxGeometry relative="1" as="geometry" />
        </mxCell>
        <mxCell id="OZeR9HdqItaZqGGBJY8X-9" value="消息回调" style="rounded=0;whiteSpace=wrap;html=1;" parent="1" vertex="1">
          <mxGeometry x="260" y="170" width="120" height="60" as="geometry" />
        </mxCell>
        <mxCell id="OZeR9HdqItaZqGGBJY8X-10" value="卡片回调" style="rounded=0;whiteSpace=wrap;html=1;" parent="1" vertex="1">
          <mxGeometry x="520" y="170" width="120" height="60" as="geometry" />
        </mxCell>
        <mxCell id="OZeR9HdqItaZqGGBJY8X-22" style="edgeStyle=orthogonalEdgeStyle;rounded=0;orthogonalLoop=1;jettySize=auto;html=1;exitX=0.5;exitY=1;exitDx=0;exitDy=0;" parent="1" source="OZeR9HdqItaZqGGBJY8X-15" target="OZeR9HdqItaZqGGBJY8X-3" edge="1">
          <mxGeometry relative="1" as="geometry">
            <Array as="points">
              <mxPoint x="320" y="350" />
              <mxPoint x="430" y="350" />
            </Array>
          </mxGeometry>
        </mxCell>
        <mxCell id="OZeR9HdqItaZqGGBJY8X-15" value="大模型语义理解" style="ellipse;whiteSpace=wrap;html=1;" parent="1" vertex="1">
          <mxGeometry x="260" y="250" width="120" height="80" as="geometry" />
        </mxCell>
        <mxCell id="OZeR9HdqItaZqGGBJY8X-20" value="食堂业务" style="rounded=1;whiteSpace=wrap;html=1;" parent="1" vertex="1">
          <mxGeometry x="150" y="360" width="120" height="60" as="geometry" />
        </mxCell>
        <mxCell id="OZeR9HdqItaZqGGBJY8X-21" style="edgeStyle=orthogonalEdgeStyle;rounded=0;orthogonalLoop=1;jettySize=auto;html=1;exitX=0.5;exitY=1;exitDx=0;exitDy=0;entryX=0.45;entryY=-0.017;entryDx=0;entryDy=0;entryPerimeter=0;" parent="1" source="OZeR9HdqItaZqGGBJY8X-15" target="OZeR9HdqItaZqGGBJY8X-20" edge="1">
          <mxGeometry relative="1" as="geometry">
            <Array as="points">
              <mxPoint x="320" y="350" />
              <mxPoint x="204" y="350" />
            </Array>
          </mxGeometry>
        </mxCell>
      </root>
    </mxGraphModel>
  </diagram>
  <diagram id="LzRnr93fj8sYPvRDea_K" name="第 2 页">
    <mxGraphModel dx="1434" dy="1915" grid="1" gridSize="10" guides="1" tooltips="1" connect="1" arrows="1" fold="1" page="1" pageScale="1" pageWidth="827" pageHeight="1169" math="0" shadow="0">
      <root>
        <mxCell id="0" />
        <mxCell id="1" parent="0" />
        <mxCell id="zSmDQt9b6JU6q3Dm70nx-15" style="edgeStyle=orthogonalEdgeStyle;rounded=0;orthogonalLoop=1;jettySize=auto;html=1;entryX=0;entryY=0.5;entryDx=0;entryDy=0;" edge="1" parent="1" source="zSmDQt9b6JU6q3Dm70nx-1" target="zSmDQt9b6JU6q3Dm70nx-5">
          <mxGeometry relative="1" as="geometry" />
        </mxCell>
        <mxCell id="zSmDQt9b6JU6q3Dm70nx-1" value="Actor" style="shape=umlActor;verticalLabelPosition=bottom;verticalAlign=top;html=1;outlineConnect=0;" vertex="1" parent="1">
          <mxGeometry x="50" y="120" width="30" height="60" as="geometry" />
        </mxCell>
        <mxCell id="zSmDQt9b6JU6q3Dm70nx-12" style="edgeStyle=orthogonalEdgeStyle;rounded=0;orthogonalLoop=1;jettySize=auto;html=1;entryX=0;entryY=0.5;entryDx=0;entryDy=0;" edge="1" parent="1" source="zSmDQt9b6JU6q3Dm70nx-2" target="zSmDQt9b6JU6q3Dm70nx-5">
          <mxGeometry relative="1" as="geometry" />
        </mxCell>
        <mxCell id="zSmDQt9b6JU6q3Dm70nx-2" value="Actor" style="shape=umlActor;verticalLabelPosition=bottom;verticalAlign=top;html=1;outlineConnect=0;" vertex="1" parent="1">
          <mxGeometry x="50" y="230" width="30" height="60" as="geometry" />
        </mxCell>
        <mxCell id="zSmDQt9b6JU6q3Dm70nx-16" style="edgeStyle=orthogonalEdgeStyle;rounded=0;orthogonalLoop=1;jettySize=auto;html=1;entryX=0;entryY=0.5;entryDx=0;entryDy=0;" edge="1" parent="1" source="zSmDQt9b6JU6q3Dm70nx-3" target="zSmDQt9b6JU6q3Dm70nx-5">
          <mxGeometry relative="1" as="geometry" />
        </mxCell>
        <mxCell id="zSmDQt9b6JU6q3Dm70nx-3" value="Actor" style="shape=umlActor;verticalLabelPosition=bottom;verticalAlign=top;html=1;outlineConnect=0;" vertex="1" parent="1">
          <mxGeometry x="50" y="350" width="30" height="60" as="geometry" />
        </mxCell>
        <mxCell id="zSmDQt9b6JU6q3Dm70nx-11" style="edgeStyle=orthogonalEdgeStyle;rounded=0;orthogonalLoop=1;jettySize=auto;html=1;exitX=1;exitY=0.5;exitDx=0;exitDy=0;" edge="1" parent="1" source="zSmDQt9b6JU6q3Dm70nx-5" target="zSmDQt9b6JU6q3Dm70nx-6">
          <mxGeometry relative="1" as="geometry" />
        </mxCell>
        <mxCell id="zSmDQt9b6JU6q3Dm70nx-5" value="兑换优惠券接口" style="rounded=0;whiteSpace=wrap;html=1;fillColor=#ffe6cc;strokeColor=#d79b00;" vertex="1" parent="1">
          <mxGeometry x="170" y="230" width="120" height="60" as="geometry" />
        </mxCell>
        <mxCell id="zSmDQt9b6JU6q3Dm70nx-9" style="edgeStyle=orthogonalEdgeStyle;rounded=0;orthogonalLoop=1;jettySize=auto;html=1;exitX=0.5;exitY=1;exitDx=0;exitDy=0;entryX=0.5;entryY=0;entryDx=0;entryDy=0;" edge="1" parent="1" source="zSmDQt9b6JU6q3Dm70nx-6" target="zSmDQt9b6JU6q3Dm70nx-8">
          <mxGeometry relative="1" as="geometry" />
        </mxCell>
        <mxCell id="zSmDQt9b6JU6q3Dm70nx-10" value="不存在或者不在有效期内" style="edgeLabel;html=1;align=center;verticalAlign=middle;resizable=0;points=[];" vertex="1" connectable="0" parent="zSmDQt9b6JU6q3Dm70nx-9">
          <mxGeometry x="0.1039" y="-3" relative="1" as="geometry">
            <mxPoint as="offset" />
          </mxGeometry>
        </mxCell>
        <mxCell id="zSmDQt9b6JU6q3Dm70nx-37" style="edgeStyle=orthogonalEdgeStyle;rounded=0;orthogonalLoop=1;jettySize=auto;html=1;exitX=1;exitY=0.5;exitDx=0;exitDy=0;" edge="1" parent="1" source="zSmDQt9b6JU6q3Dm70nx-6">
          <mxGeometry relative="1" as="geometry">
            <mxPoint x="520" y="259.8333333333335" as="targetPoint" />
          </mxGeometry>
        </mxCell>
        <mxCell id="zSmDQt9b6JU6q3Dm70nx-6" value="缓存中根据id获取优惠券模板" style="rounded=0;whiteSpace=wrap;html=1;fillColor=#d5e8d4;strokeColor=#82b366;" vertex="1" parent="1">
          <mxGeometry x="360" y="230" width="120" height="60" as="geometry" />
        </mxCell>
        <mxCell id="zSmDQt9b6JU6q3Dm70nx-8" value="流程结束" style="rounded=0;whiteSpace=wrap;html=1;fillColor=#dae8fc;strokeColor=#6c8ebf;" vertex="1" parent="1">
          <mxGeometry x="170" y="410" width="120" height="60" as="geometry" />
        </mxCell>
        <mxCell id="zSmDQt9b6JU6q3Dm70nx-21" value="&lt;div style=&quot;background-color:#2b2b2b;color:#a9b7c6&quot;&gt;&lt;pre style=&quot;font-family:&#39;JetBrains Mono&#39;,monospace;font-size:9.8pt;&quot;&gt;&lt;span style=&quot;color:#808080;&quot;&gt;-- Lua &lt;/span&gt;&lt;span style=&quot;color:#808080;font-family:&#39;宋体&#39;,monospace;&quot;&gt;脚本&lt;/span&gt;&lt;span style=&quot;color:#808080;&quot;&gt;: &lt;/span&gt;&lt;span style=&quot;color:#808080;font-family:&#39;宋体&#39;,monospace;&quot;&gt;检查用户是否达到优惠券领取上限并记录领取次数&lt;br&gt;&lt;/span&gt;&lt;span style=&quot;color:#808080;font-family:&#39;宋体&#39;,monospace;&quot;&gt;&lt;br&gt;&lt;/span&gt;&lt;span style=&quot;color:#808080;&quot;&gt;-- &lt;/span&gt;&lt;span style=&quot;color:#808080;font-family:&#39;宋体&#39;,monospace;&quot;&gt;参数列表：&lt;br&gt;&lt;/span&gt;&lt;span style=&quot;color:#808080;&quot;&gt;-- KEYS[1]: &lt;/span&gt;&lt;span style=&quot;color:#808080;font-family:&#39;宋体&#39;,monospace;&quot;&gt;优惠券库存键&lt;/span&gt;&lt;span style=&quot;color:#808080;&quot;&gt; (coupon_stock_key)&lt;br&gt;&lt;/span&gt;&lt;span style=&quot;color:#808080;&quot;&gt;-- KEYS[2]: &lt;/span&gt;&lt;span style=&quot;color:#808080;font-family:&#39;宋体&#39;,monospace;&quot;&gt;用户领取记录键&lt;/span&gt;&lt;span style=&quot;color:#808080;&quot;&gt; (user_coupon_key)&lt;br&gt;&lt;/span&gt;&lt;span style=&quot;color:#808080;&quot;&gt;-- ARGV[1]: &lt;/span&gt;&lt;span style=&quot;color:#808080;font-family:&#39;宋体&#39;,monospace;&quot;&gt;优惠券有效期结束时间&lt;/span&gt;&lt;span style=&quot;color:#808080;&quot;&gt; (timestamp)&lt;br&gt;&lt;/span&gt;&lt;span style=&quot;color:#808080;&quot;&gt;-- ARGV[2]: &lt;/span&gt;&lt;span style=&quot;color:#808080;font-family:&#39;宋体&#39;,monospace;&quot;&gt;用户领取上限&lt;/span&gt;&lt;span style=&quot;color:#808080;&quot;&gt; (limit)&lt;/span&gt;&lt;/pre&gt;&lt;/div&gt;" style="text;whiteSpace=wrap;html=1;" vertex="1" parent="1">
          <mxGeometry x="460" y="-60" width="390" height="140" as="geometry" />
        </mxCell>
        <mxCell id="zSmDQt9b6JU6q3Dm70nx-44" style="edgeStyle=orthogonalEdgeStyle;rounded=0;orthogonalLoop=1;jettySize=auto;html=1;entryX=1;entryY=0.5;entryDx=0;entryDy=0;" edge="1" parent="1" source="zSmDQt9b6JU6q3Dm70nx-41" target="zSmDQt9b6JU6q3Dm70nx-8">
          <mxGeometry relative="1" as="geometry" />
        </mxCell>
        <mxCell id="zSmDQt9b6JU6q3Dm70nx-67" value="" style="group" vertex="1" connectable="0" parent="1">
          <mxGeometry x="510" y="100" width="290" height="380" as="geometry" />
        </mxCell>
        <mxCell id="zSmDQt9b6JU6q3Dm70nx-20" value="" style="group;fillColor=#f5f5f5;strokeColor=#666666;fontColor=#333333;" vertex="1" connectable="0" parent="zSmDQt9b6JU6q3Dm70nx-67">
          <mxGeometry x="10" width="280" height="380" as="geometry" />
        </mxCell>
        <mxCell id="zSmDQt9b6JU6q3Dm70nx-36" value="" style="group" vertex="1" connectable="0" parent="zSmDQt9b6JU6q3Dm70nx-20">
          <mxGeometry width="280" height="380" as="geometry" />
        </mxCell>
        <mxCell id="zSmDQt9b6JU6q3Dm70nx-19" value="lua脚本" style="text;html=1;align=center;verticalAlign=middle;whiteSpace=wrap;rounded=0;" vertex="1" parent="zSmDQt9b6JU6q3Dm70nx-36">
          <mxGeometry x="110" width="60" height="30" as="geometry" />
        </mxCell>
        <mxCell id="zSmDQt9b6JU6q3Dm70nx-41" value="处理失败返回" style="rounded=0;whiteSpace=wrap;html=1;fillColor=#f8cecc;strokeColor=#b85450;" vertex="1" parent="zSmDQt9b6JU6q3Dm70nx-36">
          <mxGeometry x="10" y="310" width="120" height="60" as="geometry" />
        </mxCell>
        <mxCell id="zSmDQt9b6JU6q3Dm70nx-42" style="edgeStyle=orthogonalEdgeStyle;rounded=0;orthogonalLoop=1;jettySize=auto;html=1;" edge="1" parent="zSmDQt9b6JU6q3Dm70nx-20" source="zSmDQt9b6JU6q3Dm70nx-22" target="zSmDQt9b6JU6q3Dm70nx-41">
          <mxGeometry relative="1" as="geometry" />
        </mxCell>
        <mxCell id="zSmDQt9b6JU6q3Dm70nx-22" value="判断Redis库存" style="rounded=0;whiteSpace=wrap;html=1;fillColor=#d5e8d4;strokeColor=#82b366;" vertex="1" parent="zSmDQt9b6JU6q3Dm70nx-20">
          <mxGeometry x="140" y="30" width="120" height="60" as="geometry" />
        </mxCell>
        <mxCell id="zSmDQt9b6JU6q3Dm70nx-43" style="edgeStyle=orthogonalEdgeStyle;rounded=0;orthogonalLoop=1;jettySize=auto;html=1;" edge="1" parent="zSmDQt9b6JU6q3Dm70nx-20" source="zSmDQt9b6JU6q3Dm70nx-23">
          <mxGeometry relative="1" as="geometry">
            <mxPoint x="70" y="310" as="targetPoint" />
          </mxGeometry>
        </mxCell>
        <mxCell id="zSmDQt9b6JU6q3Dm70nx-23" value="判断用户领取当前优惠券的次数是否过多" style="rounded=0;whiteSpace=wrap;html=1;fillColor=#d5e8d4;strokeColor=#82b366;" vertex="1" parent="zSmDQt9b6JU6q3Dm70nx-20">
          <mxGeometry x="140" y="125" width="120" height="60" as="geometry" />
        </mxCell>
        <mxCell id="zSmDQt9b6JU6q3Dm70nx-29" value="新增用户领取次数" style="rounded=0;whiteSpace=wrap;html=1;fillColor=#d5e8d4;strokeColor=#82b366;" vertex="1" parent="zSmDQt9b6JU6q3Dm70nx-20">
          <mxGeometry x="140" y="220" width="120" height="60" as="geometry" />
        </mxCell>
        <mxCell id="zSmDQt9b6JU6q3Dm70nx-30" value="扣减库存" style="rounded=0;whiteSpace=wrap;html=1;fillColor=#d5e8d4;strokeColor=#82b366;" vertex="1" parent="zSmDQt9b6JU6q3Dm70nx-20">
          <mxGeometry x="140" y="310" width="120" height="60" as="geometry" />
        </mxCell>
        <mxCell id="zSmDQt9b6JU6q3Dm70nx-31" style="edgeStyle=orthogonalEdgeStyle;rounded=0;orthogonalLoop=1;jettySize=auto;html=1;exitX=0.5;exitY=1;exitDx=0;exitDy=0;entryX=0.5;entryY=0;entryDx=0;entryDy=0;" edge="1" parent="zSmDQt9b6JU6q3Dm70nx-20" source="zSmDQt9b6JU6q3Dm70nx-22" target="zSmDQt9b6JU6q3Dm70nx-23">
          <mxGeometry relative="1" as="geometry" />
        </mxCell>
        <mxCell id="zSmDQt9b6JU6q3Dm70nx-32" style="edgeStyle=orthogonalEdgeStyle;rounded=0;orthogonalLoop=1;jettySize=auto;html=1;exitX=0.5;exitY=1;exitDx=0;exitDy=0;" edge="1" parent="zSmDQt9b6JU6q3Dm70nx-20" source="zSmDQt9b6JU6q3Dm70nx-23" target="zSmDQt9b6JU6q3Dm70nx-29">
          <mxGeometry relative="1" as="geometry" />
        </mxCell>
        <mxCell id="zSmDQt9b6JU6q3Dm70nx-33" style="edgeStyle=orthogonalEdgeStyle;rounded=0;orthogonalLoop=1;jettySize=auto;html=1;exitX=0.5;exitY=1;exitDx=0;exitDy=0;entryX=0.5;entryY=0;entryDx=0;entryDy=0;" edge="1" parent="zSmDQt9b6JU6q3Dm70nx-20" source="zSmDQt9b6JU6q3Dm70nx-29" target="zSmDQt9b6JU6q3Dm70nx-30">
          <mxGeometry relative="1" as="geometry" />
        </mxCell>
        <mxCell id="zSmDQt9b6JU6q3Dm70nx-45" value="缓存" style="text;html=1;align=center;verticalAlign=middle;whiteSpace=wrap;rounded=0;" vertex="1" parent="zSmDQt9b6JU6q3Dm70nx-20">
          <mxGeometry width="60" height="30" as="geometry" />
        </mxCell>
        <mxCell id="zSmDQt9b6JU6q3Dm70nx-94" style="edgeStyle=orthogonalEdgeStyle;rounded=0;orthogonalLoop=1;jettySize=auto;html=1;exitX=0.5;exitY=1;exitDx=0;exitDy=0;entryX=0.5;entryY=1;entryDx=0;entryDy=0;" edge="1" parent="1" source="zSmDQt9b6JU6q3Dm70nx-85" target="zSmDQt9b6JU6q3Dm70nx-8">
          <mxGeometry relative="1" as="geometry" />
        </mxCell>
        <mxCell id="zSmDQt9b6JU6q3Dm70nx-97" value="" style="endArrow=classic;html=1;rounded=0;" edge="1" parent="1">
          <mxGeometry width="50" height="50" relative="1" as="geometry">
            <mxPoint x="800" y="310" as="sourcePoint" />
            <mxPoint x="880" y="310" as="targetPoint" />
          </mxGeometry>
        </mxCell>
        <mxCell id="zSmDQt9b6JU6q3Dm70nx-103" value="" style="group" vertex="1" connectable="0" parent="1">
          <mxGeometry x="880" y="100" width="520" height="380" as="geometry" />
        </mxCell>
        <mxCell id="zSmDQt9b6JU6q3Dm70nx-66" value="" style="group;fillColor=#d5e8d4;strokeColor=#82b366;" vertex="1" connectable="0" parent="zSmDQt9b6JU6q3Dm70nx-103">
          <mxGeometry width="280" height="380" as="geometry" />
        </mxCell>
        <mxCell id="zSmDQt9b6JU6q3Dm70nx-59" value="数据库" style="text;html=1;align=center;verticalAlign=middle;whiteSpace=wrap;rounded=0;" vertex="1" parent="zSmDQt9b6JU6q3Dm70nx-66">
          <mxGeometry width="60" height="30" as="geometry" />
        </mxCell>
        <mxCell id="zSmDQt9b6JU6q3Dm70nx-95" value="" style="group" vertex="1" connectable="0" parent="zSmDQt9b6JU6q3Dm70nx-66">
          <mxGeometry width="280" height="380" as="geometry" />
        </mxCell>
        <mxCell id="zSmDQt9b6JU6q3Dm70nx-46" value="编程式事务" style="group;fillColor=#f5f5f5;strokeColor=#666666;fontColor=#333333;" vertex="1" connectable="0" parent="zSmDQt9b6JU6q3Dm70nx-95">
          <mxGeometry width="280" height="380" as="geometry" />
        </mxCell>
        <mxCell id="zSmDQt9b6JU6q3Dm70nx-68" value="乐观锁扣减数据库库存" style="rounded=0;whiteSpace=wrap;html=1;fillColor=#d5e8d4;strokeColor=#82b366;" vertex="1" parent="zSmDQt9b6JU6q3Dm70nx-95">
          <mxGeometry x="130" y="30" width="130" height="60" as="geometry" />
        </mxCell>
        <mxCell id="zSmDQt9b6JU6q3Dm70nx-69" value="数据库新增用户优惠券领取记录" style="rounded=0;whiteSpace=wrap;html=1;fillColor=#d5e8d4;strokeColor=#82b366;" vertex="1" parent="zSmDQt9b6JU6q3Dm70nx-95">
          <mxGeometry x="130" y="110" width="130" height="60" as="geometry" />
        </mxCell>
        <mxCell id="zSmDQt9b6JU6q3Dm70nx-85" value="处理失败返回" style="rounded=0;whiteSpace=wrap;html=1;fillColor=#f8cecc;strokeColor=#b85450;" vertex="1" parent="zSmDQt9b6JU6q3Dm70nx-95">
          <mxGeometry x="10" y="310" width="100" height="60" as="geometry" />
        </mxCell>
        <mxCell id="zSmDQt9b6JU6q3Dm70nx-89" value="缓存中新增用户优惠券记录" style="rounded=1;whiteSpace=wrap;html=1;" vertex="1" parent="zSmDQt9b6JU6q3Dm70nx-95">
          <mxGeometry x="135" y="190" width="120" height="60" as="geometry" />
        </mxCell>
        <mxCell id="zSmDQt9b6JU6q3Dm70nx-90" value="发送延时消息，删除过期数据" style="rounded=0;whiteSpace=wrap;html=1;fillColor=#d5e8d4;strokeColor=#82b366;" vertex="1" parent="zSmDQt9b6JU6q3Dm70nx-95">
          <mxGeometry x="130" y="280" width="130" height="60" as="geometry" />
        </mxCell>
        <mxCell id="zSmDQt9b6JU6q3Dm70nx-88" style="edgeStyle=orthogonalEdgeStyle;rounded=0;orthogonalLoop=1;jettySize=auto;html=1;exitX=0.5;exitY=1;exitDx=0;exitDy=0;entryX=0.5;entryY=0;entryDx=0;entryDy=0;" edge="1" parent="zSmDQt9b6JU6q3Dm70nx-95" source="zSmDQt9b6JU6q3Dm70nx-68" target="zSmDQt9b6JU6q3Dm70nx-69">
          <mxGeometry relative="1" as="geometry" />
        </mxCell>
        <mxCell id="zSmDQt9b6JU6q3Dm70nx-86" style="edgeStyle=orthogonalEdgeStyle;rounded=0;orthogonalLoop=1;jettySize=auto;html=1;exitX=0;exitY=0.5;exitDx=0;exitDy=0;" edge="1" parent="zSmDQt9b6JU6q3Dm70nx-95" source="zSmDQt9b6JU6q3Dm70nx-68" target="zSmDQt9b6JU6q3Dm70nx-85">
          <mxGeometry relative="1" as="geometry" />
        </mxCell>
        <mxCell id="zSmDQt9b6JU6q3Dm70nx-87" style="edgeStyle=orthogonalEdgeStyle;rounded=0;orthogonalLoop=1;jettySize=auto;html=1;exitX=0;exitY=0.5;exitDx=0;exitDy=0;" edge="1" parent="zSmDQt9b6JU6q3Dm70nx-95" source="zSmDQt9b6JU6q3Dm70nx-69" target="zSmDQt9b6JU6q3Dm70nx-85">
          <mxGeometry relative="1" as="geometry" />
        </mxCell>
        <mxCell id="zSmDQt9b6JU6q3Dm70nx-91" style="edgeStyle=orthogonalEdgeStyle;rounded=0;orthogonalLoop=1;jettySize=auto;html=1;exitX=0.5;exitY=1;exitDx=0;exitDy=0;entryX=0.5;entryY=0;entryDx=0;entryDy=0;" edge="1" parent="zSmDQt9b6JU6q3Dm70nx-95" source="zSmDQt9b6JU6q3Dm70nx-69" target="zSmDQt9b6JU6q3Dm70nx-89">
          <mxGeometry relative="1" as="geometry" />
        </mxCell>
        <mxCell id="zSmDQt9b6JU6q3Dm70nx-92" style="edgeStyle=orthogonalEdgeStyle;rounded=0;orthogonalLoop=1;jettySize=auto;html=1;exitX=0.5;exitY=1;exitDx=0;exitDy=0;entryX=0.5;entryY=0;entryDx=0;entryDy=0;" edge="1" parent="zSmDQt9b6JU6q3Dm70nx-95" source="zSmDQt9b6JU6q3Dm70nx-89" target="zSmDQt9b6JU6q3Dm70nx-90">
          <mxGeometry relative="1" as="geometry" />
        </mxCell>
        <mxCell id="zSmDQt9b6JU6q3Dm70nx-98" value="方案一：直接同步到Redis，使用&lt;span style=&quot;white-space-collapse: preserve; background-color: initial;&quot;&gt;写后查询策略处理极端条件下数据丢失的问题&lt;/span&gt;" style="rounded=1;whiteSpace=wrap;html=1;fillColor=#d5e8d4;strokeColor=#82b366;" vertex="1" parent="zSmDQt9b6JU6q3Dm70nx-103">
          <mxGeometry x="340" y="100" width="180" height="100" as="geometry" />
        </mxCell>
        <mxCell id="zSmDQt9b6JU6q3Dm70nx-99" value="方案二：使用&lt;i style=&quot;white-space-collapse: preserve; background-color: initial;&quot;&gt;通过 &lt;/i&gt;&lt;span style=&quot;white-space-collapse: preserve; background-color: initial;&quot;&gt;Canal 监听用户优惠券表 Binlog 投递消息队列消费，消费逻辑同上&lt;/span&gt;" style="rounded=1;whiteSpace=wrap;html=1;fillColor=#d5e8d4;strokeColor=#82b366;" vertex="1" parent="zSmDQt9b6JU6q3Dm70nx-103">
          <mxGeometry x="340" y="250" width="180" height="100" as="geometry" />
        </mxCell>
        <mxCell id="zSmDQt9b6JU6q3Dm70nx-100" value="" style="endArrow=classic;startArrow=classic;html=1;rounded=0;exitX=1;exitY=0.5;exitDx=0;exitDy=0;entryX=0;entryY=0.5;entryDx=0;entryDy=0;" edge="1" parent="zSmDQt9b6JU6q3Dm70nx-103" source="zSmDQt9b6JU6q3Dm70nx-89" target="zSmDQt9b6JU6q3Dm70nx-98">
          <mxGeometry width="50" height="50" relative="1" as="geometry">
            <mxPoint x="270" y="210" as="sourcePoint" />
            <mxPoint x="330" y="180" as="targetPoint" />
          </mxGeometry>
        </mxCell>
        <mxCell id="zSmDQt9b6JU6q3Dm70nx-102" value="" style="endArrow=classic;startArrow=classic;html=1;rounded=0;entryX=0;entryY=0.5;entryDx=0;entryDy=0;exitX=1;exitY=0.5;exitDx=0;exitDy=0;" edge="1" parent="zSmDQt9b6JU6q3Dm70nx-103" source="zSmDQt9b6JU6q3Dm70nx-89" target="zSmDQt9b6JU6q3Dm70nx-99">
          <mxGeometry width="50" height="50" relative="1" as="geometry">
            <mxPoint x="260" y="220" as="sourcePoint" />
            <mxPoint x="310" y="170" as="targetPoint" />
          </mxGeometry>
        </mxCell>
      </root>
    </mxGraphModel>
  </diagram>
</mxfile>
